<?xml version="1.0"?>
<svg xmlns="http://www.w3.org/2000/svg" id="Capa_1" enable-background="new 0 0 512 512" height="512px" viewBox="0 0 512 512" width="512px"><g><g><path d="m283.879 430.198h-55.758c-4.142 0-7.5 3.357-7.5 7.5s3.358 7.5 7.5 7.5h55.758c4.143 0 7.5-3.357 7.5-7.5s-3.358-7.5-7.5-7.5z" data-original="#000000" class="active-path" data-old_color="#000000" fill="#1273EB"/><path d="m283.879 401.057h-55.758c-4.142 0-7.5 3.357-7.5 7.5s3.358 7.5 7.5 7.5h55.758c4.143 0 7.5-3.357 7.5-7.5s-3.358-7.5-7.5-7.5z" data-original="#000000" class="active-path" data-old_color="#000000" fill="#1273EB"/><path d="m325.151 398.024c-13.826 0-25.075 11.262-25.075 25.104 0 13.826 11.249 25.075 25.075 25.075 13.842 0 25.104-11.249 25.104-25.075 0-13.842-11.262-25.104-25.104-25.104zm0 35.179c-5.556 0-10.075-4.52-10.075-10.075 0-5.571 4.52-10.104 10.075-10.104 5.571 0 10.104 4.532 10.104 10.104 0 5.555-4.532 10.075-10.104 10.075z" data-original="#000000" class="active-path" data-old_color="#000000" fill="#1273EB"/><path d="m186.82 398.024c-13.842 0-25.103 11.262-25.103 25.104 0 13.826 11.261 25.075 25.103 25.075s25.103-11.249 25.103-25.075c0-13.842-11.261-25.104-25.103-25.104zm0 35.179c-5.571 0-10.103-4.52-10.103-10.075 0-5.571 4.532-10.104 10.103-10.104s10.103 4.532 10.103 10.104c0 5.555-4.532 10.075-10.103 10.075z" data-original="#000000" class="active-path" data-old_color="#000000" fill="#1273EB"/><path d="m503.088 103.392c-.351-.105-.738-.223-1.167-.36l-233.405-99.141c-9.703-4.146-15.321-4.147-25.043-.007l-233.421 99.147c-.426.138-.811.254-1.158.358-6.567 1.985-8.894 5.384-8.894 12.993v49.636c0 6.855 5.577 12.433 12.432 12.433h19.883v320.62c0 6.699 5.45 12.149 12.149 12.149h44.221 70.895 25.541 141.761 25.512 70.895 44.221c6.714 0 12.177-5.45 12.177-12.149v-199.622c0-4.143-3.357-7.5-7.5-7.5s-7.5 3.357-7.5 7.5v196.771h-33.897v-296.015c0-4.143-3.357-7.5-7.5-7.5h-334.605c-4.142 0-7.5 3.357-7.5 7.5v296.015h-33.87v-325.27c0-4.143-3.358-7.5-7.5-7.5h-24.815v-46.255c.015-.005.03-.01.045-.015.194-.064.386-.137.574-.217l233.725-99.275c5.969-2.544 7.334-2.543 13.291.003l233.718 99.272c.188.08.38.152.573.217.025.008.05.016.074.024v46.245h-24.815c-4.143 0-7.5 3.357-7.5 7.5v93.887c0 4.143 3.357 7.5 7.5 7.5s7.5-3.357 7.5-7.5v-86.386h19.854c6.871 0 12.461-5.577 12.461-12.433v-49.636c0-7.606-2.332-11.004-8.912-12.989zm-357.909 266.342c-5.165 0-9.366-4.253-9.366-9.48s4.202-9.48 9.366-9.48h12.612l-8.991 18.961h-3.621zm60.848 107.979h99.917v12.599c0 2.053.31 4.032.865 5.908h-101.645c.554-1.876.864-3.855.864-5.908v-12.599zm-58.278-15c-.002-.324-.002-.616-.002-.834l-.006-50.035c-.022-4.812-.022-4.812 2.486-10.108l8.061-17.001h195.401l8.063 17.02c2.504 5.243 2.504 5.243 2.479 9.967-.004.683-.008 50.668-.01 50.992h-216.472zm215.432-92.979-8.983-18.961h12.624c5.164 0 9.365 4.253 9.365 9.48s-4.201 9.48-9.365 9.48h-3.641zm-27.799-23.642c.112.275 11.201 23.642 11.201 23.642h-181.182l19.722-41.592c3.51-7.411 5.834-11.664 8.06-12.913 2.402-1.349 7.937-1.333 16.323-1.31h92.987c8.369-.022 13.9-.038 16.303 1.31 2.23 1.252 4.562 5.507 8.082 12.914zm-175.803 150.128c-3.202 0-5.908-2.706-5.908-5.908v-12.599h37.356v12.599c0 3.202-2.706 5.908-5.908 5.908zm167.302 0c-3.273 0-5.937-2.65-5.937-5.908v-12.599h37.385v12.599c0 3.202-2.719 5.908-5.937 5.908zm-230.696-250.501h143.219c4.142 0 7.5-3.357 7.5-7.5s-3.358-7.5-7.5-7.5h-143.219v-23.014h319.603v23.014h-141.773c-4.143 0-7.5 3.357-7.5 7.5s3.357 7.5 7.5 7.5h141.772v250.501h-43.323c.555-1.876.865-3.855.865-5.908v-14.222c5.889-3.188 5.896-10.303 5.896-14.211 0 0 .004-49.42.007-50.08.04-7.475-.292-8.863-3.933-16.487l-5.124-10.815c11.853-1.648 21.011-11.888 21.011-24.243 0-13.499-10.931-24.48-24.365-24.48h-19.73l-6.661-14.06c-4.518-9.508-7.953-16.007-14.292-19.565-5.842-3.278-12.559-3.263-23.687-3.229l-92.168.002-.735-.002c-11.146-.036-17.866-.05-23.707 3.229-6.342 3.561-9.77 10.062-14.273 19.57l-6.664 14.055h-19.724c-13.436 0-24.366 10.981-24.366 24.48 0 12.347 9.147 22.582 20.989 24.24l-5.13 10.819c-3.634 7.673-3.965 9.069-3.931 16.6l.006 49.967c0 3.912.007 11.036 5.924 14.219v14.213c0 2.053.31 4.032.864 5.908h-43.35v-250.501z" data-original="#000000" class="active-path" data-old_color="#000000" fill="#1273EB"/><path d="m93.503 111.943c-6.792 0-12.319 5.526-12.319 12.319v29.112c0 6.793 5.526 12.319 12.319 12.319h64.97c6.792 0 12.319-5.526 12.319-12.319v-29.112c0-6.793-5.526-12.319-12.319-12.319zm62.289 38.751h-59.607v-23.751h59.608v23.751z" data-original="#000000" class="active-path" data-old_color="#000000" fill="#1273EB"/><path d="m223.5 111.943c-6.792 0-12.319 5.526-12.319 12.319v29.112c0 6.793 5.526 12.319 12.319 12.319h64.97c6.793 0 12.319-5.526 12.319-12.319v-29.112c0-6.793-5.526-12.319-12.319-12.319zm62.29 38.751h-59.608v-23.751h59.608z" data-original="#000000" class="active-path" data-old_color="#000000" fill="#1273EB"/><path d="m353.526 111.943c-6.809 0-12.348 5.526-12.348 12.319v29.112c0 6.793 5.539 12.319 12.348 12.319h64.941c6.793 0 12.319-5.526 12.319-12.319v-29.112c0-6.793-5.526-12.319-12.319-12.319zm62.261 38.751h-59.608v-23.751h59.608z" data-original="#000000" class="active-path" data-old_color="#000000" fill="#1273EB"/></g></g> </svg>
